<?xml version="1.0" ?><svg id="Layer_1" style="enable-background:new 0 0 512 512;" version="1.1" viewBox="0 0 512 512" xml:space="preserve" xmlns="http://www.w3.org/2000/svg" xmlns:xlink="http://www.w3.org/1999/xlink"><style type="text/css">
	.st0{fill:#FFDBD4;}
	.st1{fill:#BF6149;}
	.st2{fill:#A84835;}
	.st3{fill:#FFFFFF;}
</style><g id="XMLID_17_"><g id="XMLID_107_"><polygon class="st0" id="XMLID_111_" points="330.7,6 87.9,6 87.9,506 449.2,506 449.2,122.8   "/><polygon class="st1" id="XMLID_110_" points="330.7,6 449.2,122.8 330.7,122.8   "/><rect class="st1" height="156.1" id="XMLID_109_" width="329" x="62.8" y="298.8"/><polygon class="st2" id="XMLID_108_" points="62.8,454.9 87.9,476.1 87.9,454.9   "/></g><g id="XMLID_814_"><path class="st3" d="M171.8,336.5v16.7h10.6v14.5h-10.6v30.7c0,2.4,0.5,4.1,1.5,5.2c1,1.1,2.3,1.6,3.9,1.6    c1.1,0,1.9,0,2.6-0.1c0.6-0.1,1.5-0.2,2.4-0.5l1.4,15.5c-2.1,0.5-4,0.9-5.7,1.1c-1.7,0.2-3.7,0.3-6,0.3c-6.9,0-12.1-1.8-15.7-5.5    c-3.6-3.7-5.4-9.5-5.4-17.5v-30.9h-9.4v-14.5h9.4v-16.7H171.8z" id="XMLID_764_"/><path class="st3" d="M227.9,372.9h0.4l8.5-19.8h23.5l-19.5,33.1l20.1,33.9h-23.5l-8.9-20.4h-0.4l-8.9,20.4h-23.5    l20.1-33.9l-19.5-33.1h23.4L227.9,372.9z" id="XMLID_766_"/><path class="st3" d="M299.6,336.5v16.7h10.6v14.5h-10.6v30.7c0,2.4,0.5,4.1,1.5,5.2c1,1.1,2.3,1.6,3.9,1.6    c1.1,0,1.9,0,2.6-0.1c0.6-0.1,1.5-0.2,2.4-0.5l1.4,15.5c-2.1,0.5-4,0.9-5.7,1.1c-1.7,0.2-3.7,0.3-6,0.3c-6.9,0-12.1-1.8-15.7-5.5    c-3.6-3.7-5.4-9.5-5.4-17.5v-30.9h-9.4v-14.5h9.4v-16.7H299.6z" id="XMLID_768_"/></g></g></svg>