<?xml version="1.0" ?><svg viewBox="0 0 48 48" xmlns="http://www.w3.org/2000/svg" xmlns:xlink="http://www.w3.org/1999/xlink"><defs><style>.cls-1{fill:#e1eaf6;}.cls-2{fill:url(#linear-gradient);}.cls-3{fill:#eff4f9;}.cls-4{fill:#a7c1db;}.cls-5{fill:#fac02e;}.cls-6{fill:#fff;}</style><linearGradient gradientUnits="userSpaceOnUse" id="linear-gradient" x1="24" x2="24" y1="5.03" y2="40.35"><stop offset="0" stop-color="#f1f5f9"/><stop offset="1" stop-color="#d8e5f4"/></linearGradient></defs><title/><g id="icons"><g data-name="Layer 3" id="Layer_3"><path class="cls-1" d="M33,40.5H15a5,5,0,0,1-5-5v-25a5,5,0,0,1,5-5H27.52a6,6,0,0,1,4.27,1.77l4.44,4.44A6,6,0,0,1,38,16V35.5A5,5,0,0,1,33,40.5Z"/><path class="cls-2" d="M33,42.5H15a5,5,0,0,1-5-5v-25a5,5,0,0,1,5-5H27.52a6,6,0,0,1,4.27,1.77l4.44,4.44A6,6,0,0,1,38,18V37.5A5,5,0,0,1,33,42.5Z"/><path class="cls-3" d="M20.69,24.29v.05a3.31,3.31,0,0,0,6.62,0l-.82-7.16a1.85,1.85,0,0,0-1.79-1.59H23.29a1.85,1.85,0,0,0-1.79,1.59l-.81,7.08Zm1.55-.19.08-.73a1.68,1.68,0,0,1,3.35,0l.08.73a1.4,1.4,0,0,1-1.42,1.6h-.67A1.41,1.41,0,0,1,22.24,24.1Zm.7-5.63L23,18a1,1,0,0,1,2,0l.05.43a.84.84,0,0,1-.85,1h-.4A.84.84,0,0,1,22.94,18.47Z"/><rect class="cls-3" height="1.55" width="2.98" x="21.4" y="7.98"/><rect class="cls-3" height="1.55" width="2.98" x="22.99" y="9.52"/><rect class="cls-3" height="1.55" width="2.98" x="21.4" y="11.07"/><rect class="cls-3" height="1.55" width="2.98" x="22.99" y="12.62"/><path class="cls-4" d="M24,27a3.32,3.32,0,0,0,3.31-3.23l-.82-7.11A1.85,1.85,0,0,0,24.7,15H23.29a1.85,1.85,0,0,0-1.79,1.6l-.81,7A3.32,3.32,0,0,0,24,27Zm-1.76-3.46.08-.72a1.68,1.68,0,0,1,3.35,0l.08.72a1.4,1.4,0,0,1-1.42,1.6h-.67A1.41,1.41,0,0,1,22.24,23.49ZM23,17.82l0-.41a.94.94,0,0,1,1.87,0l.05.41a.78.78,0,0,1-.8.89h-.37A.78.78,0,0,1,23,17.82Z"/><rect class="cls-4" height="1.55" width="2.98" x="21.4" y="7.5"/><rect class="cls-4" height="1.55" width="2.98" x="22.99" y="9.05"/><rect class="cls-4" height="1.55" width="2.98" x="21.4" y="10.59"/><rect class="cls-4" height="1.55" width="2.98" x="22.99" y="12.14"/><path class="cls-4" d="M36,16H30.83a2.33,2.33,0,0,1-2.33-2.33V9.5a.5.5,0,0,1,1,0v4.17A1.33,1.33,0,0,0,30.83,15H36a.5.5,0,0,1,0,1Z"/><rect class="cls-5" height="8.77" rx="1.91" ry="1.91" width="17.93" x="23.07" y="31.34"/><path class="cls-6" d="M27.2,36.75l2.36-2.82h-2a.49.49,0,0,1-.32-.09.33.33,0,0,1-.11-.25.35.35,0,0,1,.11-.26.49.49,0,0,1,.32-.1h2.61q.51,0,.51.48a.64.64,0,0,1-.09.36,3.69,3.69,0,0,1-.34.43L28,37.13h2.43a.49.49,0,0,1,.32.09.3.3,0,0,1,.11.24.35.35,0,0,1-.11.27.49.49,0,0,1-.32.1h-3a.67.67,0,0,1-.46-.14.47.47,0,0,1-.15-.37.32.32,0,0,1,0-.14.47.47,0,0,1,.07-.12l.12-.15Z"/><path class="cls-6" d="M31.5,37.34V33.72a.57.57,0,0,1,.13-.42.39.39,0,0,1,.33-.14.45.45,0,0,1,.34.13.61.61,0,0,1,.13.43v3.62a.57.57,0,0,1-.13.42.42.42,0,0,1-.34.14.42.42,0,0,1-.33-.14A.59.59,0,0,1,31.5,37.34Z"/><path class="cls-6" d="M35.25,36H34.4v1.3a.6.6,0,0,1-.13.42.42.42,0,0,1-.33.14.41.41,0,0,1-.34-.14.57.57,0,0,1-.13-.42V33.8a.57.57,0,0,1,.14-.43.64.64,0,0,1,.45-.14h1.19a2.85,2.85,0,0,1,.82.09,1.07,1.07,0,0,1,.48.26,1.19,1.19,0,0,1,.32.44,1.59,1.59,0,0,1,.1.59,1.29,1.29,0,0,1-.43,1.06A1.93,1.93,0,0,1,35.25,36ZM35,33.93H34.4v1.4H35a2.15,2.15,0,0,0,.55-.06.62.62,0,0,0,.33-.23.65.65,0,0,0,.12-.41.67.67,0,0,0-.18-.49A1.16,1.16,0,0,0,35,33.93Z"/></g></g></svg>