<?xml version="1.0" ?><!DOCTYPE svg  PUBLIC '-//W3C//DTD SVG 1.1//EN'  'http://www.w3.org/Graphics/SVG/1.1/DTD/svg11.dtd'><svg enable-background="new 0 0 141.732 141.732" height="141.732px" id="Livello_1" version="1.1" viewBox="0 0 141.732 141.732" width="141.732px" xml:space="preserve" xmlns="http://www.w3.org/2000/svg" xmlns:xlink="http://www.w3.org/1999/xlink"><g id="Livello_9"><path d="M88.637,42.678c0.045,0,0.086-0.003,0.131-0.003V0.004C88.723,0.004,88.682,0,88.637,0   c-23.654,0-42.829,31.197-42.829,69.68c0,38.479,19.175,69.679,42.829,69.679c0.041,0,0.082-0.003,0.121-0.005V96.699   c-0.039,0-0.08-0.003-0.121-0.003c-3.361,0-6.541,0.777-9.371,2.159c-4.145-8.11-6.605-18.253-6.605-29.26   c0-10.943,2.438-21.031,6.537-29.118C82.044,41.885,85.247,42.678,88.637,42.678 M95.923,40.26c0-0.048-0.004-0.09-0.006-0.133   h0.006V2.811h-0.006c0.002-0.044,0.006-0.087,0.006-0.131c0-1.413-1.145-2.562-2.557-2.562c-1.41,0-2.557,1.146-2.557,2.562   c0,0.044,0.004,0.087,0.006,0.131h-0.006V40.13h0.006c-0.002,0.043-0.006,0.085-0.006,0.133c0,1.402,1.146,2.545,2.557,2.545   C94.778,42.804,95.923,41.665,95.923,40.26 M95.917,136.665h0.006V99.346h-0.006c0.002-0.044,0.006-0.087,0.006-0.135   c0-1.409-1.145-2.558-2.557-2.558c-1.41,0-2.557,1.146-2.557,2.558c0,0.048,0.004,0.091,0.006,0.135h-0.006v37.315h0.006   c-0.002,0.043-0.006,0.085-0.006,0.129c0,1.406,1.146,2.545,2.557,2.545c1.412,0,2.557-1.139,2.557-2.545   C95.923,136.75,95.919,136.708,95.917,136.665"/></g><g id="Livello_1_1_"/></svg>